<?xml version="1.0" encoding="UTF-8"?>
<svg version="1.1" xmlns="http://www.w3.org/2000/svg" width="200" height="200">
<path d="M0 0 C66 0 132 0 200 0 C200 66 200 132 200 200 C134 200 68 200 0 200 C0 134 0 68 0 0 Z " fill="#FEFEFE" transform="translate(0,0)"/>
<path d="M0 0 C1.26953125 2.1640625 1.26953125 2.1640625 1.8125 4.625 C2.00457031 5.42164062 2.19664062 6.21828125 2.39453125 7.0390625 C2.59433594 8.01617187 2.79414063 8.99328125 3 10 C3.16701416 10.6614502 3.33402832 11.32290039 3.50610352 12.00439453 C4.88318597 17.60220099 5.34930575 22.86858128 5.3125 28.625 C5.31048584 29.48657715 5.30847168 30.3481543 5.30639648 31.23583984 C5.1819389 39.29204622 4.65740902 48.68518196 1 56 C1.804375 56.144375 2.60875 56.28875 3.4375 56.4375 C6 57 6 57 7 58 C7.203125 59.99609375 7.203125 59.99609375 7.25 62.4375 C7.27578125 63.24058594 7.3015625 64.04367188 7.328125 64.87109375 C7.21984375 65.57363281 7.1115625 66.27617187 7 67 C3.57905758 69.28062828 2.31812778 69.21925007 -1.6875 69.125 C-2.68136719 69.10695313 -3.67523438 69.08890625 -4.69921875 69.0703125 C-5.45847656 69.04710937 -6.21773438 69.02390625 -7 69 C-7 67.35 -7 65.7 -7 64 C-7.65484375 64.13277344 -8.3096875 64.26554687 -8.984375 64.40234375 C-29.2056047 68.31520882 -51.38952366 69.2891533 -71.2890625 63.3125 C-74.02961167 61.21016091 -74.32783718 58.65224519 -75.1875 55.375 C-75.67283203 53.59222656 -75.67283203 53.59222656 -76.16796875 51.7734375 C-79.60863176 36.16930383 -80.96230808 15.76288737 -74 1 C-71.72931031 -2.03662383 -69.36642746 -2.7057405 -65.75 -3.625 C-64.83734375 -3.86476563 -63.9246875 -4.10453125 -62.984375 -4.3515625 C-44.17277041 -8.43890067 -17.46962347 -9.28410323 0 0 Z " fill="#1C9F9E" transform="translate(138,77)"/>
<path d="M0 0 C0.71220703 -0.01224609 1.42441406 -0.02449219 2.15820312 -0.03710938 C6.26524812 -0.04850728 9.54846448 0.21202357 13.1875 2.1875 C14.68899828 5.19049655 14.37188425 8.27226691 14.375 11.5625 C14.38724609 12.23539063 14.39949219 12.90828125 14.41210938 13.6015625 C14.43192642 20.31293493 14.43192642 20.31293493 12.1875 23.1875 C9.40184221 24.09615236 6.84707958 24.3157449 3.9296875 24.3203125 C3.13949219 24.32160156 2.34929688 24.32289062 1.53515625 24.32421875 C0.71917969 24.32035156 -0.09679688 24.31648438 -0.9375 24.3125 C-2.17306641 24.31830078 -2.17306641 24.31830078 -3.43359375 24.32421875 C-9.5591133 24.31419335 -9.5591133 24.31419335 -11.8125 23.1875 C-13.22944005 19.49073974 -13.01666074 15.53279671 -13.0625 11.625 C-13.083125 10.95275391 -13.10375 10.28050781 -13.125 9.58789062 C-13.1640819 4.66845614 -13.1640819 4.66845614 -11.421875 2.28515625 C-7.72846366 -0.23389372 -4.33084944 0.0038565 0 0 Z " fill="#E99E14" transform="translate(47.8125,47.8125)"/>
<path d="M0 0 C0.7734375 0.04382813 1.546875 0.08765625 2.34375 0.1328125 C3.53484375 0.21015625 3.53484375 0.21015625 4.75 0.2890625 C5.5440625 0.33289063 6.338125 0.37671875 7.15625 0.421875 C11.17196896 0.66281814 14.76693001 1.1174485 18.75 1.9140625 C18.75 7.8540625 18.75 13.7940625 18.75 19.9140625 C15.78 19.9140625 12.81 19.9140625 9.75 19.9140625 C9.75 20.5740625 9.75 21.2340625 9.75 21.9140625 C8.43 21.5840625 7.11 21.2540625 5.75 20.9140625 C5.75 19.9240625 5.75 18.9340625 5.75 17.9140625 C5.20859375 18.24148437 4.6671875 18.56890625 4.109375 18.90625 C-0.16395888 20.73161447 -4.66549015 20.0232175 -9.25 19.9140625 C-9.25 13.6440625 -9.25 7.3740625 -9.25 0.9140625 C-5.64174689 0.19241188 -3.47222869 -0.20335043 0 0 Z " fill="#3B9E9E" transform="translate(88.25,95.0859375)"/>
<path d="M0 0 C5.28 0 10.56 0 16 0 C16 5.94 16 11.88 16 18 C12.04 18 8.08 18 4 18 C4 13.05 4 8.1 4 3 C2.68 3 1.36 3 0 3 C0 2.01 0 1.02 0 0 Z " fill="#329E9A" transform="translate(91,97)"/>
<path d="M0 0 C1.32 0.66 2.64 1.32 4 2 C3.34 4.97 2.68 7.94 2 11 C-0.64 11 -3.28 11 -6 11 C-6 11.99 -6 12.98 -6 14 C-3.03 13.34 -0.06 12.68 3 12 C3.33 13.98 3.66 15.96 4 18 C1.24921116 18.91692961 -0.35948913 19.10886083 -3.1875 19.0625 C-5.0746875 19.0315625 -5.0746875 19.0315625 -7 19 C-7 18.34 -7 17.68 -7 17 C-7.639375 16.71125 -8.27875 16.4225 -8.9375 16.125 C-11 15 -11 15 -12 13 C-12.68839635 6.00130378 -12.68839635 6.00130378 -9.9375 2 C-6.28060335 -0.48980198 -4.34579086 -0.55310065 0 0 Z " fill="#279D9A" transform="translate(121,97)"/>
<path d="M0 0 C1.45599609 0.00966797 1.45599609 0.00966797 2.94140625 0.01953125 C5.4375 0.1875 5.4375 0.1875 7.4375 1.1875 C7.46436553 3.16659398 7.48383375 5.14578971 7.5 7.125 C7.51160156 8.22714844 7.52320313 9.32929687 7.53515625 10.46484375 C7.4375 13.1875 7.4375 13.1875 6.4375 14.1875 C4.08436445 14.26021741 1.72916332 14.27120868 -0.625 14.25 C-1.91535156 14.24097656 -3.20570313 14.23195313 -4.53515625 14.22265625 C-5.53417969 14.21105469 -6.53320312 14.19945313 -7.5625 14.1875 C-8.48806607 11.41080178 -8.75545491 9.51053105 -8.8125 6.625 C-8.83828125 5.83996094 -8.8640625 5.05492188 -8.890625 4.24609375 C-8.78234375 3.56675781 -8.6740625 2.88742188 -8.5625 2.1875 C-5.18127827 -0.06664782 -3.9560272 -0.05794447 0 0 Z " fill="#EDC523" transform="translate(157.5625,64.8125)"/>
<path d="M0 0 C4.53303272 -0.4276446 7.92403834 -0.03798083 12 2 C13.58867866 3.58867866 13.20794039 5.24689516 13.25 7.4375 C13.28867188 8.64212891 13.28867188 8.64212891 13.328125 9.87109375 C13.21984375 10.57363281 13.1115625 11.27617187 13 12 C9.57905758 14.28062828 8.31812778 14.21925007 4.3125 14.125 C2.82169922 14.09792969 2.82169922 14.09792969 1.30078125 14.0703125 C0.54152344 14.04710937 -0.21773437 14.02390625 -1 14 C-1.22226864 12.23086176 -1.42733873 10.45955629 -1.625 8.6875 C-1.74101562 7.70136719 -1.85703125 6.71523437 -1.9765625 5.69921875 C-2 3 -2 3 0 0 Z " fill="#C0313E" transform="translate(132,132)"/>
<path d="M0 0 C3.5625 0.125 3.5625 0.125 5.5625 1.125 C5.5625 4.095 5.5625 7.065 5.5625 10.125 C2.2625 10.125 -1.0375 10.125 -4.4375 10.125 C-4.53515625 3.19140625 -4.53515625 3.19140625 -4.4375 1.125 C-3.4375 0.125 -3.4375 0.125 0 0 Z " fill="#2D995F" transform="translate(56.4375,141.875)"/>
<path d="M0 0 C3.20825562 -0.05849554 6.41637233 -0.09376162 9.625 -0.125 C10.52863281 -0.14175781 11.43226562 -0.15851562 12.36328125 -0.17578125 C13.68779297 -0.18544922 13.68779297 -0.18544922 15.0390625 -0.1953125 C15.84553223 -0.20578613 16.65200195 -0.21625977 17.48291016 -0.22705078 C20 0 20 0 26 2 C26 9.59 26 17.18 26 25 C22.8815675 26.0394775 20.72524414 26.11494838 17.45703125 26.09765625 C16.38388672 26.09443359 15.31074219 26.09121094 14.20507812 26.08789062 C13.08552734 26.07951172 11.96597656 26.07113281 10.8125 26.0625 C9.68134766 26.05798828 8.55019531 26.05347656 7.38476562 26.04882812 C4.58979073 26.03703498 1.7949218 26.0205765 -1 26 C-1 25.34 -1 24.68 -1 24 C-0.41508789 24.00523682 0.16982422 24.01047363 0.77246094 24.01586914 C3.43162963 24.03670158 6.09078111 24.04968007 8.75 24.0625 C9.67039062 24.07087891 10.59078125 24.07925781 11.5390625 24.08789062 C12.42851563 24.09111328 13.31796875 24.09433594 14.234375 24.09765625 C15.45979004 24.10551147 15.45979004 24.10551147 16.70996094 24.11352539 C18.99643057 24.00017695 20.86092956 23.82597477 23 23 C23.90238747 20.29283758 24.11851302 18.76223232 24.09765625 15.98828125 C24.09282227 14.85229492 24.09282227 14.85229492 24.08789062 13.69335938 C24.07951172 12.90767578 24.07113281 12.12199219 24.0625 11.3125 C24.05798828 10.51521484 24.05347656 9.71792969 24.04882812 8.89648438 C24.0370585 6.93095743 24.01912348 4.96546915 24 3 C19.64417794 1.92596168 15.39634885 1.85047837 10.9375 1.875 C10.23044922 1.87113281 9.52339844 1.86726563 8.79492188 1.86328125 C5.39105469 1.86967349 2.25275537 1.93546188 -1 3 C-0.67 2.01 -0.34 1.02 0 0 Z " fill="#FEF5D2" transform="translate(37,47)"/>
<path d="M0 0 C1.9375 1.5 1.9375 1.5 3 3 C0.81160732 3 -1.37994218 2.97219935 -3.5625 2.8125 C-6.0083094 2.8123948 -6.0083094 2.8123948 -7.8125 4.125 C-9.52849028 6.83445834 -9.333728 8.86295684 -9 12 C-7.21342243 14.21370051 -7.21342243 14.21370051 -4.8359375 14.1953125 C-4.02382812 14.17210938 -3.21171875 14.14890625 -2.375 14.125 C-1.55773437 14.10695313 -0.74046875 14.08890625 0.1015625 14.0703125 C0.72804688 14.04710938 1.35453125 14.02390625 2 14 C2 14.99 2 15.98 2 17 C-1.13871188 18.56935594 -3.53855822 18.35201103 -7 18 C-9.91963173 16.01216563 -11.61102978 14.5685303 -12.48046875 11.0625 C-12.75815509 7.09984094 -12.23092162 5.33588599 -9.9375 2 C-6.28670848 -0.48564529 -4.33453498 -0.64215333 0 0 Z " fill="#C3F5F5" transform="translate(121,97)"/>
<path d="M0 0 C4.53303272 -0.4276446 7.92403834 -0.03798083 12 2 C13.58867866 3.58867866 13.20794039 5.24689516 13.25 7.4375 C13.28867188 8.64212891 13.28867188 8.64212891 13.328125 9.87109375 C13.21984375 10.57363281 13.1115625 11.27617187 13 12 C9.57905758 14.28062828 8.31812778 14.21925007 4.3125 14.125 C2.82169922 14.09792969 2.82169922 14.09792969 1.30078125 14.0703125 C0.54152344 14.04710937 -0.21773437 14.02390625 -1 14 C-1.22226864 12.23086176 -1.42733873 10.45955629 -1.625 8.6875 C-1.74101562 7.70136719 -1.85703125 6.71523437 -1.9765625 5.69921875 C-2 3 -2 3 0 0 Z M1 3 C0.814375 4.27875 0.62875 5.5575 0.4375 6.875 C0.33308594 7.59429687 0.22867188 8.31359375 0.12109375 9.0546875 C-0.1684297 11.08140667 -0.1684297 11.08140667 1 13 C2.27875 13.020625 3.5575 13.04125 4.875 13.0625 C5.59429687 13.07410156 6.31359375 13.08570313 7.0546875 13.09765625 C9.08185404 13.12649242 9.08185404 13.12649242 11 12 C11 9.03 11 6.06 11 3 C7.7 3 4.4 3 1 3 Z " fill="#A05059" transform="translate(132,132)"/>
<path d="M0 0 C3.63 0 7.26 0 11 0 C11.125 6.75 11.125 6.75 10 9 C7.4375 9.625 7.4375 9.625 5 10 C4.67 9.01 4.34 8.02 4 7 C1.98491642 6.26676204 1.98491642 6.26676204 0 6 C0 4.02 0 2.04 0 0 Z " fill="#1A9E9D" transform="translate(83,101)"/>
<path d="M0 0 C3.3 0 6.6 0 10 0 C10 0.66 10 1.32 10 2 C7.36 2 4.72 2 2 2 C2 4.97 2 7.94 2 11 C3.98 11 5.96 11 8 11 C8 11.66 8 12.32 8 13 C6.02 13 4.04 13 2 13 C2 13.99 2 14.98 2 16 C4.64 16 7.28 16 10 16 C10 16.66 10 17.32 10 18 C6.7 18 3.4 18 0 18 C0 12.06 0 6.12 0 0 Z " fill="#DAFFFF" transform="translate(79,97)"/>
<path d="M0 0 C3.63 0 7.26 0 11 0 C11 0.66 11 1.32 11 2 C9.68 2 8.36 2 7 2 C7 7.28 7 12.56 7 18 C6.01 18 5.02 18 4 18 C4 13.05 4 8.1 4 3 C2.68 3 1.36 3 0 3 C0 2.01 0 1.02 0 0 Z " fill="#C5F1F1" transform="translate(91,97)"/>
<path d="M0 0 C0.99 0 1.98 0 3 0 C3 5.94 3 11.88 3 18 C2.01 18 1.02 18 0 18 C0 12.06 0 6.12 0 0 Z " fill="#BBEFEF" transform="translate(104,97)"/>
<path d="M0 0 C0.72380859 0.00773437 1.44761719 0.01546875 2.19335938 0.0234375 C2.90556641 0.01570313 3.61777344 0.00796875 4.3515625 0 C8.44597121 0.01515045 11.75247316 0.31065334 15.38085938 2.2734375 C16.9135252 5.33876914 16.48362408 8.54098022 16.44335938 11.8984375 C16.43884766 12.60484375 16.43433594 13.31125 16.4296875 14.0390625 C16.41789812 15.78389025 16.39996262 17.5286745 16.38085938 19.2734375 C16.05085938 19.2734375 15.72085938 19.2734375 15.38085938 19.2734375 C15.32027344 18.35820313 15.2596875 17.44296875 15.19726562 16.5 C15.11347656 15.31148437 15.0296875 14.12296875 14.94335938 12.8984375 C14.86214844 11.71507812 14.7809375 10.53171875 14.69726562 9.3125 C14.57001002 6.35824849 14.57001002 6.35824849 13.38085938 4.2734375 C9.07446668 1.91850765 4.84571165 2.03743557 0.06835938 2.1484375 C-1.04249023 2.16197266 -1.04249023 2.16197266 -2.17578125 2.17578125 C-3.9903753 2.19919537 -5.80480134 2.23506135 -7.61914062 2.2734375 C-5.08657472 -0.25912841 -3.45871972 0.01286965 0 0 Z " fill="#E1AB49" transform="translate(45.619140625,47.7265625)"/>
<path d="M0 0 C0.33 0 0.66 0 1 0 C1 5.94 1 11.88 1 18 C4.3 18 7.6 18 11 18 C11 18.66 11 19.32 11 20 C9.37585622 20.19477739 7.75063577 20.38059458 6.125 20.5625 C5.22007813 20.66691406 4.31515625 20.77132812 3.3828125 20.87890625 C1 21 1 21 -1 20 C-0.67 13.4 -0.34 6.8 0 0 Z " fill="#4EA9A8" transform="translate(78,97)"/>
<path d="M0 0 C0.99 0.33 1.98 0.66 3 1 C2.67 1.66 2.34 2.32 2 3 C1.45082123 8.87453193 1.45082123 8.87453193 4 14 C4.66 14.66 5.32 15.32 6 16 C3.625 16.125 3.625 16.125 1 16 C-1 14 -1 14 -1.23046875 10.99609375 C-1.21628906 9.82175781 -1.20210938 8.64742187 -1.1875 7.4375 C-1.17783203 5.67212891 -1.17783203 5.67212891 -1.16796875 3.87109375 C-1 1 -1 1 0 0 Z " fill="#3A9C9D" transform="translate(108,99)"/>
<path d="M0 0 C0.474375 0.495 0.94875 0.99 1.4375 1.5 C5.20358351 3.70453669 8.73459379 3.24608113 13 3 C13 3.99 13 4.98 13 6 C9.94306678 7.52846661 7.37015453 7.23242445 4 7 C1.5625 5.75 1.5625 5.75 0 4 C0 2.68 0 1.36 0 0 Z " fill="#BAECEB" transform="translate(110,108)"/>
<path d="M0 0 C1.32 0 2.64 0 4 0 C4 3.3 4 6.6 4 10 C2.68 10.33 1.36 10.66 0 11 C0 7.37 0 3.74 0 0 Z " fill="#189E9F" transform="translate(99,101)"/>
<path d="M0 0 C0.33 0.99 0.66 1.98 1 3 C3.72923388 3.0270817 6.45819637 3.04687847 9.1875 3.0625 C9.95642578 3.07087891 10.72535156 3.07925781 11.51757812 3.08789062 C15.48526789 3.10491934 19.12571234 2.98604115 23 2 C23 1.34 23 0.68 23 0 C23.66 0 24.32 0 25 0 C24.67 1.32 24.34 2.64 24 4 C21.18009247 4.79967527 18.67013128 5.12822838 15.7421875 5.1328125 C14.95199219 5.13410156 14.16179688 5.13539062 13.34765625 5.13671875 C12.53167969 5.13285156 11.71570312 5.12898438 10.875 5.125 C9.63943359 5.13080078 9.63943359 5.13080078 8.37890625 5.13671875 C2.2533867 5.12669335 2.2533867 5.12669335 0 4 C0 2.68 0 1.36 0 0 Z " fill="#DFA643" transform="translate(36,67)"/>
<path d="M0 0 C0.66 0 1.32 0 2 0 C1.67 1.32 1.34 2.64 1 4 C1.66 4 2.32 4 3 4 C3.33 5.65 3.66 7.3 4 9 C2.68 9 1.36 9 0 9 C0 6.03 0 3.06 0 0 Z " fill="#2E935F" transform="translate(52,143)"/>
<path d="M0 0 C2 3.875 2 3.875 2 5 C-0.64 5 -3.28 5 -6 5 C-6 4.01 -6 3.02 -6 2 C-4.02 2 -2.04 2 0 2 C0 1.34 0 0.68 0 0 Z " fill="#5FAEAD" transform="translate(87,108)"/>
</svg>
